<?xml version="1.0" encoding="UTF-8" standalone="no"?>
<!-- Generator: Adobe Illustrator 27.9.0, SVG Export Plug-In . SVG Version: 6.00 Build 0)  -->

<svg
   version="1.1"
   id="Calque_1"
   x="0px"
   y="0px"
   viewBox="0 0 607.75648 59.999998"
   xml:space="preserve"
   sodipodi:docname="logo_footer.svg"
   width="607.75647"
   height="60"
   inkscape:version="1.2 (dc2aeda, 2022-05-15)"
   inkscape:export-filename="logo_footer.png"
   inkscape:export-xdpi="96"
   inkscape:export-ydpi="96"
   xmlns:inkscape="http://www.inkscape.org/namespaces/inkscape"
   xmlns:sodipodi="http://sodipodi.sourceforge.net/DTD/sodipodi-0.dtd"
   xmlns="http://www.w3.org/2000/svg"
   xmlns:svg="http://www.w3.org/2000/svg"><defs
   id="defs201"><clipPath
     clipPathUnits="userSpaceOnUse"
     id="clipPath848"><path
       d="M 0,170.079 H 446.457 V 0 H 0 Z"
       id="path846" /></clipPath></defs><sodipodi:namedview
   id="namedview199"
   pagecolor="#ffffff"
   bordercolor="#666666"
   borderopacity="1.0"
   inkscape:showpageshadow="2"
   inkscape:pageopacity="0.0"
   inkscape:pagecheckerboard="0"
   inkscape:deskcolor="#d1d1d1"
   showgrid="false"
   inkscape:zoom="0.92885138"
   inkscape:cx="299.29438"
   inkscape:cy="53.829925"
   inkscape:window-width="1920"
   inkscape:window-height="1011"
   inkscape:window-x="0"
   inkscape:window-y="0"
   inkscape:window-maximized="1"
   inkscape:current-layer="Calque_1" />
<style
   type="text/css"
   id="style182">
	.st0{fill:#00284B;}
	.st1{fill:#FFFFFF;}
</style>
<g
   id="g1362"
   transform="translate(-73.832717,-283.57604)"><g
     id="g196"
     transform="matrix(0.29673011,0,0,0.29643658,15.584596,188.56812)">
	<path
   class="st0"
   d="m 293.2,320.7 c -1.8,-0.1 -3.6,-0.2 -5.4,-0.2 -25,0 -47.7,10.6 -67.5,31.8 -18,19.2 -24,34.7 -24,53.3 0,10 1.8,20.9 4.4,33.8 4.9,24.2 19.3,47.6 39.5,64.2 15.4,12.7 32.6,19.1 50.7,19.3 9.4,0.1 19,-1.6 28.8,-5 31.6,-10.9 61.7,-42.1 73.4,-75.8 3.7,-10.7 5.5,-21.1 5.4,-31 -0.1,-24.2 -11.1,-45.4 -32.2,-60.5 -25.5,-18.5 -50.1,-28.5 -73.1,-29.9 z"
   id="path184" />
	<g
   id="g194">
		<path
   class="st1"
   d="m 257.2,421.9 h -6.9 v 0.2 c -0.1,1.3 -0.9,13.1 -11.4,13.1 -9.4,0 -14.2,-8.5 -14.2,-25.1 0,-16.7 4.8,-25.1 14.2,-25.1 10.7,0 11.4,12.6 11.4,13.1 v 0.2 h 6.9 c 0.6,0 1.3,-0.3 1.7,-0.7 0.4,-0.4 0.6,-1 0.6,-1.6 -0.1,-3.3 -1.8,-19.6 -20.8,-19.6 -15.3,0 -23.4,11.6 -23.4,33.7 0,22.1 8.1,33.8 23.4,33.8 18.3,0 20.5,-14.9 20.8,-19.5 0,-0.6 -0.2,-1.2 -0.6,-1.7 -0.5,-0.5 -1.1,-0.8 -1.7,-0.8 z"
   id="path186" />
		<path
   class="st1"
   d="m 365,406.1 v 0 l -6,-2.6 c -5.7,-2.5 -7.8,-5 -7.8,-9.4 0,-5.7 4.2,-9.6 10.5,-9.6 3.7,0 6.7,0.8 10.4,4.5 l 0.2,0.2 3.2,-2.9 c 1.8,-1.7 1.3,-3.3 0.5,-4.3 -3.1,-3.7 -8.1,-5.7 -14.1,-5.7 -11.5,0 -19.8,7.5 -19.8,17.8 0,10.2 6.4,14.4 13.3,17.5 l 6.1,2.7 c 6.1,2.7 9,5.1 9,11 0,8 -7.3,10.2 -11.6,10.2 -3.7,0 -7.8,-0.8 -12.9,-6.5 l -0.2,-0.2 -3.3,2.9 c -1.7,1.5 -1.7,2.8 -0.1,4.9 4.6,5.9 11.3,7.1 16.1,7.1 10.4,0 21,-6.4 21,-18.6 0.2,-10.5 -5.7,-15.2 -14.5,-19 z"
   id="path188" />
		<path
   class="st1"
   d="m 306.1,395.7 c 0,-10.4 -8.4,-19.2 -18.9,-19.2 -4.9,0 -9.4,1.9 -12.7,4.9 v -3.6 h -6.3 c -1.9,0 -2.6,1.2 -2.6,2.7 v 60.8 c 0,1.7 1,2.6 2.6,2.6 h 6.3 v -47.8 c 0,-6.3 5.1,-11.4 11.4,-11.4 6.3,0 11.4,5.1 11.4,11.4 v 47.8 h 6.2 c 1.7,0 2.6,-1 2.6,-2.6 0,0 0,-45.5 0,-45.6 z"
   id="path190" />
		<path
   class="st1"
   d="m 342,381 c 0.3,-0.4 0.5,-0.9 0.5,-1.5 0,-1 -0.7,-1.9 -1.6,-2.2 -1.8,-0.6 -3.7,-0.9 -5.8,-0.9 -4.9,0 -9.4,1.9 -12.7,4.9 v -3.6 h -6.3 c -1.9,0 -2.6,1.2 -2.6,2.7 v 60.8 c 0,1.7 1,2.6 2.6,2.6 h 6.3 V 396 c 0,-6.3 5.1,-11.4 11.4,-11.4 1.6,0 3.2,0.4 4.6,1 z"
   id="path192" />
	</g>
</g></g>
<g
   id="g1353"
   transform="translate(-68.741143,-276.17974)"><g
     id="g842"
     transform="matrix(0.53757179,0,0,-0.53757179,174.83293,353.04584)"><g
       id="g844"
       clip-path="url(#clipPath848)"><g
         id="g850"
         transform="translate(122.1066,119.3499)"><path
           d="m 0,0 h 17.972 v -1.63 h -5.581 v -33.394 c 0,-9.605 -1.69,-19.83 -5.794,-26.469 l -3.391,4.638 c 3.372,7.777 2.393,17.533 2.46,21.831 V -1.63 H 0 Z"
           style="fill:#8a1739;fill-opacity:1;fill-rule:nonzero;stroke:none"
           id="path852" /></g><g
         id="g854"
         transform="translate(93.629,115.0486)"><path
           d="M 0,0 H 0.695 C 2.564,-18.69 6.43,-34.783 19.59,-53.19 27.776,-64.641 38.783,-80.94 38.783,-80.94 h 11.436 c 0,0 -16.528,20.91 -22.868,30.387 C 12.384,-28.185 7.232,-10.11 6.389,26.698 v 1.241 h -9.618 v -1.241 c 0.302,-30.483 -3.152,-43.763 -7.791,-55.125 -3.198,-7.831 -9.509,-17.841 -17.186,-25.586 0.006,-1.365 0.68,-4.426 1.27,-6.423 5.314,6.921 14.164,10.735 21.929,10.735 5.65,0 10.843,-1.461 15.485,-5.684 1.844,-1.68 5.031,-5.468 10.339,-14.238 -5.684,-5.976 -13.63,-9.97 -23.093,-9.97 -13.248,0 -19.287,4.924 -23.789,11.328 -4.115,5.854 -6.235,14.559 -6.235,28.06 V 2.671 h 5.094 V 4.302 H -64.014 V 2.671 h 5.275 v -31.37 c 0,-17.822 3.854,-27.746 10.103,-36.355 6.375,-8.783 19.661,-18.62 44.403,-18.62 13.068,0 22.06,5.713 27.034,10.741 1.326,-2.274 2.988,-5.159 4.542,-8.007 h 8.614 c 0,0 -5.751,8.683 -14.334,21.054 -9.127,13.155 -17.919,14.874 -26.618,14.874 -4.609,0 -10.047,-2.144 -13.185,-4.367 l -0.263,0.262 c 5.721,6.539 9.388,14.332 11.677,20.168 C -4.352,-22.793 -0.453,-9.85 0,0"
           style="fill:#8a1739;fill-opacity:1;fill-rule:nonzero;stroke:none"
           id="path856" /></g><g
         id="g858"
         transform="translate(196.4718,80.7122)"><path
           d="M 0,0 C 10.174,0 15.777,4.804 15.777,13.526 V 38.702 H 10.084 V 13.631 c 0,-5.947 -3.45,-9.09 -9.977,-9.09 -6.528,0 -9.978,3.143 -9.978,9.09 v 25.071 h -6.117 V 13.526 C -15.988,4.804 -10.311,0 0,0"
           style="fill:#000000;fill-opacity:1;fill-rule:nonzero;stroke:none"
           id="path860" /></g><g
         id="g862"
         transform="translate(243.4132,81.2366)"><path
           d="m 0,0 v 21.188 c 0,3.994 -2.969,6.285 -8.145,6.285 -4.948,0 -9.026,-1.891 -10.878,-3.731 v 3.375 L -24.4,26.885 V 0 h 5.64 v 20.109 c 1.706,2.302 5.418,3.505 8.231,3.505 3.29,0 4.888,-1.154 4.888,-3.528 L -5.641,0 Z"
           style="fill:#000000;fill-opacity:1;fill-rule:nonzero;stroke:none"
           id="path864" /></g><path
         d="m 249.753,112.302 h 5.588 v 5.17 h -5.588 z"
         style="fill:#000000;fill-opacity:1;fill-rule:nonzero;stroke:none"
         id="path866" /><g
         id="g868"
         transform="translate(249.753,81.2366)"><path
           d="M 0,0 H 5.588 V 27.058 L 0,26.943 Z"
           style="fill:#000000;fill-opacity:1;fill-rule:nonzero;stroke:none"
           id="path870" /></g><g
         id="g872"
         transform="translate(274.8185,81.2366)"><path
           d="m 0,0 10.396,26.607 0.133,0.341 H 5.644 L -2.369,5.44 l -7.796,21.344 -0.06,0.164 h -5.942 L -5.854,0 Z"
           style="fill:#000000;fill-opacity:1;fill-rule:nonzero;stroke:none"
           id="path874" /></g><g
         id="g876"
         transform="translate(291.9571,98.1619)"><path
           d="m 0,0 c 1.134,6.405 4.937,7.371 7.124,7.371 5.697,0 6.554,-4.963 6.633,-7.371 z m 18.661,-14.38 v 4.182 l -0.426,-0.422 c -1.544,-1.528 -5.074,-3.076 -8.834,-3.076 -6.41,0 -9.66,3.411 -9.66,10.14 v 0.275 h 19.321 l 0.022,0.225 c 0.054,0.537 0.054,1.652 0.054,2.071 0,7.329 -4.379,11.532 -12.014,11.532 -6.481,0 -13.021,-4.344 -13.021,-14.05 0,-8.603 5.354,-13.947 13.974,-13.947 6.132,0 9.38,2.095 10.491,2.994 z"
           style="fill:#000000;fill-opacity:1;fill-rule:nonzero;stroke:none"
           id="path878" /></g><g
         id="g880"
         transform="translate(321.6436,100.013)"><path
           d="m 0,0 c 1.264,2.985 4.254,4.051 6.639,4.051 1.387,0 2.697,-0.238 3.259,-0.592 L 10.281,3.218 V 7.772 L 10.196,7.847 C 9.594,8.375 8.521,8.644 7.01,8.644 4.242,8.644 1.464,6.958 -0.318,4.221 V 8.34 L -5.641,8.108 V -18.776 H 0 Z"
           style="fill:#000000;fill-opacity:1;fill-rule:nonzero;stroke:none"
           id="path882" /></g><g
         id="g884"
         transform="translate(344.8429,96.9944)"><path
           d="m 0,0 c -3.429,1.132 -5.498,1.815 -5.498,4.486 0,2.208 2.057,3.58 5.367,3.58 2.589,0 5.397,-0.932 7.031,-1.857 l 0.373,-0.21 v 3.82 L 7.155,9.893 c -1.348,0.84 -4.218,1.822 -7.87,1.822 -6.07,0 -9.842,-2.991 -9.842,-7.807 0,-4.681 3.648,-6.562 7.586,-7.896 l 0.777,-0.276 C 1.1,-5.43 3.275,-6.199 3.275,-8.896 c 0,-2.585 -1.894,-3.842 -5.791,-3.842 -3.114,0 -6.319,1.422 -8.113,2.832 l -0.404,0.318 v -4.039 l 0.085,-0.074 c 1.458,-1.282 5.005,-2.581 8.962,-2.581 6.692,0 10.531,2.864 10.531,7.859 C 8.545,-3.249 4.503,-1.486 0,0"
           style="fill:#000000;fill-opacity:1;fill-rule:nonzero;stroke:none"
           id="path886" /></g><path
         d="m 364.253,117.472 h -5.588 v -5.17 h 5.588 z"
         style="fill:#000000;fill-opacity:1;fill-rule:nonzero;stroke:none"
         id="path888" /><g
         id="g890"
         transform="translate(364.253,108.2947)"><path
           d="M 0,0 -5.588,-0.115 V -27.058 H 0 Z"
           style="fill:#000000;fill-opacity:1;fill-rule:nonzero;stroke:none"
           id="path892" /></g><g
         id="g894"
         transform="translate(379.8487,80.7122)"><path
           d="M 0,0 C 3.087,0 5.729,0.958 6.743,1.904 L 6.822,1.979 V 5.772 L 6.411,5.427 C 5.354,4.538 3.587,3.963 1.908,3.963 c -2.505,0 -3.672,1.021 -3.672,3.214 v 16.647 h 7.95 v 3.648 h -7.95 v 7.215 l -5.48,-2.368 V 27.49 l -3.817,-0.577 v -3.089 h 3.764 V 6.127 C -7.297,2.176 -4.705,0 0,0"
           style="fill:#000000;fill-opacity:1;fill-rule:nonzero;stroke:none"
           id="path896" /></g><g
         id="g898"
         transform="translate(407.7325,120.7259)"><path
           d="M 0,0 H -5.785 L -9.51,-8.214 h 3.697 z"
           style="fill:#000000;fill-opacity:1;fill-rule:nonzero;stroke:none"
           id="path900" /></g><g
         id="g902"
         transform="translate(401.2608,105.533)"><path
           d="M 0,0 C 5.697,0 6.554,-4.963 6.633,-7.371 H -7.124 C -5.988,-0.966 -2.187,0 0,0 m 0,3.176 c -6.481,0 -13.021,-4.344 -13.021,-14.051 0,-8.602 5.354,-13.946 13.974,-13.946 6.136,0 9.381,2.095 10.491,2.994 l 0.093,0.076 v 4.183 l -0.426,-0.423 c -1.542,-1.529 -5.071,-3.076 -8.832,-3.076 -6.41,0 -9.66,3.411 -9.66,10.14 v 0.275 h 19.318 l 0.023,0.224 c 0.056,0.537 0.056,1.652 0.056,2.072 0,7.329 -4.38,11.532 -12.016,11.532"
           style="fill:#000000;fill-opacity:1;fill-rule:nonzero;stroke:none"
           id="path904" /></g><g
         id="g906"
         transform="translate(186.6007,68.3372)"><path
           d="m 0,0 h 6.109 c 5.325,0 7.805,-2.372 7.805,-7.464 0,-4.953 -2.626,-7.464 -7.805,-7.464 H 0 Z M 7.486,3.963 H -6.117 V -34.214 H 0 v 15.271 h 7.275 c 7.966,0 12.914,4.398 12.914,11.479 0,7.155 -4.749,11.427 -12.703,11.427"
           style="fill:#000000;fill-opacity:1;fill-rule:nonzero;stroke:none"
           id="path908" /></g><g
         id="g910"
         transform="translate(218.5753,36.9319)"><path
           d="m 0,0 c -1.708,0 -4.572,0.54 -4.572,4.158 0,3.492 2.705,4.409 5.092,5.218 0.21,0.071 0.418,0.143 0.622,0.214 2.147,0.759 3.738,1.613 4.544,2.424 V 3.177 C 4.469,1.157 2.4,0 0,0 m 13.195,0.105 c -1.311,0 -1.976,0.693 -1.976,2.059 v 16.792 c 0,3.84 -3.254,5.707 -9.948,5.707 -4.25,0 -7.809,-1.223 -9.318,-2.358 l -0.099,-0.076 v -3.545 l 0.374,0.212 c 2.252,1.283 4.866,1.961 7.559,1.961 4.19,0 5.899,-0.809 5.899,-2.793 v -1.469 c 0,-2.041 -2.304,-2.907 -6.718,-4.38 L -1.32,12.124 c -4.19,-1.31 -8.522,-2.664 -8.522,-8.28 0,-4.293 3.317,-7.177 8.252,-7.177 4.597,0 6.89,1.834 8.023,3.494 0.408,-2.167 2.271,-3.494 4.96,-3.494 1.926,0 3.58,0.54 4.422,1.443 l 0.068,0.073 V 0.95 L 15.495,0.693 C 15.066,0.41 14.164,0.105 13.195,0.105"
           style="fill:#000000;fill-opacity:1;fill-rule:nonzero;stroke:none"
           id="path912" /></g><g
         id="g914"
         transform="translate(250.3741,61.5432)"><path
           d="m 0,0 c -2.767,0 -5.545,-1.686 -7.328,-4.423 v 4.118 L -12.65,-0.536 V -27.42 h 5.64 v 18.776 c 1.264,2.985 4.254,4.05 6.639,4.05 1.388,0 2.697,-0.237 3.26,-0.591 l 0.382,-0.24 v 4.553 L 3.187,-0.798 C 2.583,-0.269 1.512,0 0,0"
           style="fill:#000000;fill-opacity:1;fill-rule:nonzero;stroke:none"
           id="path916" /></g><path
         d="m 257.226,65.189 h 5.588 v 5.17 h -5.588 z"
         style="fill:#000000;fill-opacity:1;fill-rule:nonzero;stroke:none"
         id="path918" /><g
         id="g920"
         transform="translate(257.2257,34.1233)"><path
           d="M 0,0 H 5.588 V 27.058 L 0,26.942 Z"
           style="fill:#000000;fill-opacity:1;fill-rule:nonzero;stroke:none"
           id="path922" /></g><g
         id="g924"
         transform="translate(279.4952,49.8811)"><path
           d="m 0,0 c -3.429,1.132 -5.498,1.814 -5.498,4.485 0,2.208 2.057,3.58 5.367,3.58 2.591,0 5.399,-0.932 7.031,-1.856 L 7.273,5.998 v 3.82 L 7.155,9.892 c -1.347,0.84 -4.217,1.822 -7.87,1.822 -6.07,0 -9.842,-2.991 -9.842,-7.806 0,-4.68 3.648,-6.562 7.586,-7.897 l 0.776,-0.276 c 3.294,-1.165 5.47,-1.934 5.47,-4.631 0,-2.586 -1.894,-3.843 -5.791,-3.843 -3.114,0 -6.319,1.423 -8.113,2.833 l -0.404,0.318 v -4.039 l 0.085,-0.074 c 1.457,-1.282 5.004,-2.581 8.962,-2.581 6.692,0 10.531,2.864 10.531,7.858 C 8.545,-3.25 4.503,-1.486 0,0"
           style="fill:#000000;fill-opacity:1;fill-rule:nonzero;stroke:none"
           id="path926" /></g><g
         id="g928"
         transform="translate(325.4718,37.929)"><path
           d="m 0,0 c -8.821,0 -14.748,6.142 -14.748,15.283 0,9.283 5.851,15.282 14.906,15.282 4.139,0 7.538,-1.097 10.392,-3.357 l 0.405,-0.32 v 4.795 l -0.109,0.074 c -2.158,1.461 -5.382,3.139 -11.217,3.139 -12.353,0 -20.652,-7.882 -20.652,-19.613 0,-11.731 8.086,-19.613 20.123,-19.613 5.187,0 9.241,1.167 12.391,3.566 l 0.099,0.076 V 4.266 L 11.182,3.932 C 7.896,1.249 4.344,0 0,0"
           style="fill:#000000;fill-opacity:1;fill-rule:nonzero;stroke:none"
           id="path930" /></g><path
         d="m 343.296,65.189 h 5.588 v 5.17 h -5.588 z"
         style="fill:#000000;fill-opacity:1;fill-rule:nonzero;stroke:none"
         id="path932" /><g
         id="g934"
         transform="translate(343.296,34.1233)"><path
           d="M 0,0 H 5.588 V 27.058 L 0,26.942 Z"
           style="fill:#000000;fill-opacity:1;fill-rule:nonzero;stroke:none"
           id="path936" /></g><g
         id="g938"
         transform="translate(366.3878,37.5618)"><path
           d="M 0,0 C -2.505,0 -3.672,1.021 -3.672,3.214 V 19.86 h 7.949 v 3.649 h -7.949 v 7.214 l -5.482,-2.368 v -4.829 l -3.815,-0.577 V 19.86 h 3.762 V 2.164 c 0,-3.951 2.592,-6.127 7.299,-6.127 3.084,0 5.725,0.957 6.741,1.903 l 0.079,0.075 V 1.809 L 4.501,1.463 C 3.446,0.574 1.68,0 0,0"
           style="fill:#000000;fill-opacity:1;fill-rule:nonzero;stroke:none"
           id="path940" /></g><g
         id="g942"
         transform="translate(386.5499,65.3987)"><path
           d="M 0,0 5.813,8.213 H 0.028 L -3.696,0 Z"
           style="fill:#000000;fill-opacity:1;fill-rule:nonzero;stroke:none"
           id="path944" /></g><g
         id="g946"
         transform="translate(385.8917,58.4192)"><path
           d="M 0,0 C 5.697,0 6.554,-4.963 6.633,-7.371 H -7.124 C -5.99,-0.966 -2.188,0 0,0 m 0,3.176 c -6.481,0 -13.021,-4.345 -13.021,-14.051 0,-8.602 5.354,-13.945 13.974,-13.945 6.132,0 9.38,2.093 10.491,2.994 l 0.093,0.075 v 4.182 l -0.426,-0.422 c -1.544,-1.529 -5.074,-3.076 -8.834,-3.076 -6.41,0 -9.66,3.412 -9.66,10.14 v 0.275 h 19.321 l 0.022,0.224 c 0.054,0.537 0.054,1.653 0.054,2.073 C 12.014,-1.027 7.635,3.176 0,3.176"
           style="fill:#000000;fill-opacity:1;fill-rule:nonzero;stroke:none"
           id="path948" /></g></g></g></g><g
   id="g3171"
   transform="matrix(0.42477878,0,0,0.42477878,228.73921,-29.451104)"><path
     class="cls-1"
     d="m 808.44971,120.96281 c -8.65,0 -15.12,5.31999 -17.14,13.97999 h 33.67 c -1.83,-8.9 -7.8,-13.98 -16.53,-13.97999 z"
     id="path3003"
     style="fill:#d3132a;stroke-width:0px" /><path
     class="cls-1"
     d="m 879.45971,69.332805 h -486.38 c -7.07,0 -12.81,5.74 -12.81,12.81 V 197.7728 c 0,7.08 5.74,12.81 12.81,12.81 h 486.38 c 7.08,0 12.81,-5.74 12.81,-12.81 V 82.142805 c 0,-7.07 -5.74,-12.81 -12.81,-12.81 z m -377.69,102.579995 c -7.88,6.7 -17.53,9.97 -27.12,9.97 -11.88,0 -23.68,-5.02 -31.98,-14.79 -14.99,-17.65 -12.83,-44.11 4.82,-59.1 7.88,-6.7 17.53,-9.969995 27.12,-9.969995 11.88,0 23.68,5.019995 31.98,14.789995 14.99,17.65 12.83,44.11 -4.82,59.1 z m 99.8,-47.84 h -1.08 c -17.38,0 -17.38,6.34 -17.38,18.98 v 30.3 h -14.14 v -30.3 c 0,-11.57 0,-33.11 31.51,-33.11 h 1.08 v 14.14 z m 30.94,49.28 h -14.12 v -63.43 h 14.12 z m 83.18,0 h -14.13 v -7.18 c -5.37,5.82 -12.71,8.87 -21.43,8.87 -17.89,0 -30.87,-14.12 -30.87,-33.59999 0,-19.48 13.27,-33.21 30.87,-33.21 8.67,0 16.16,3.11 21.43,8.85 v -7.16 h 14.13 z m 52.02,-50.22 h -13.01 v 50.21 h -14.12 v -50.21 h -7.43 v -13.22 h 7.43 V 96.312805 h 14.12 V 109.9128 h 13.01 z m 71.73,23.04 -0.16,0.90001 h -48.27 c 1.86,9.33999 8.3,14.87999 17.44,14.87999 7.62,0 13.69,-3.45 17.13,-9.7 l 0.49,-0.88 12.33,5.55 -0.49,0.99 c -5.24,10.89 -15.98,17.12 -29.46,17.12 -18.64,0 -32.16,-14.07 -32.16,-33.47 0,-19.4 13.23,-33.34 32.16,-33.34 18.93,0 31.39,13.65001 31.39,33.21 0,1.54 -0.14,3.17 -0.4,4.74 z"
     id="path3005"
     style="fill:#d3132a;stroke-width:0px" /><path
     class="cls-1"
     d="m 682.33971,121.21281 c -5.72,0 -10.3,1.94 -13.62,5.75999 -3.28,3.76 -4.95,8.59 -4.95,14.37 0,12.05 7.47,20.14 18.57,20.14 11.1,0 18.58,-7.90999 18.58,-20.14 0,-12.23 -7.47,-20.12999 -18.58,-20.12999 z"
     id="path3007"
     style="fill:#d3132a;stroke-width:0px" /></g></svg>
