<?xml version="1.0" encoding="UTF-8"?><svg id="Calque_1" xmlns="http://www.w3.org/2000/svg" viewBox="0 0 512 225"><defs><style>.cls-1{fill:#d3132a;stroke-width:0px;}</style></defs><path class="cls-1" d="M428.18,51.61c-8.65,0-15.12,5.32-17.14,13.98h33.67c-1.83-8.9-7.8-13.98-16.53-13.98Z"/><path class="cls-1" d="M302.07,51.86c-5.72,0-10.3,1.94-13.62,5.76-3.28,3.76-4.95,8.59-4.95,14.37,0,12.05,7.47,20.14,18.57,20.14s18.58-7.91,18.58-20.14-7.47-20.13-18.58-20.13Z"/><path class="cls-1" d="M43.42,159.79c2.34,0,4.12,1.18,4.98,3.01l2.88-1.47c-1.44-2.79-4.28-4.56-7.86-4.56-5.23-.1-8.94,4.06-8.86,8.77-.07,4.71,3.63,8.87,8.86,8.77,3.58,0,6.42-1.78,7.86-4.57l-2.88-1.47c-.86,1.83-2.64,3.01-4.98,3.01-3.48,0-5.62-2.69-5.62-5.74s2.14-5.74,5.62-5.74Z"/><polygon class="cls-1" points="54.92 173.94 66.13 173.94 66.13 170.99 58.09 170.99 58.09 166.9 65.44 166.9 65.44 163.99 58.09 163.99 58.09 160.08 66.13 160.08 66.13 157.12 54.92 157.12 54.92 173.94"/><polygon class="cls-1" points="81.89 167.91 72.25 156.98 70.42 156.98 70.42 173.94 73.6 173.94 73.62 163.15 83.28 174.09 85.11 174.09 85.11 157.12 81.91 157.12 81.89 167.91"/><polygon class="cls-1" points="96.92 173.94 96.92 160.01 102.01 160.01 102.01 157.12 88.62 157.12 88.62 160.01 93.75 160.01 93.75 173.94 96.92 173.94"/><path class="cls-1" d="M115.35,173.94h3.66l-4.57-7.21c2.28-.6,3.75-2.28,3.75-4.71,0-3.15-2.5-4.91-5.77-4.91h-6.92v16.83h3.17v-6.99l2.4.02,4.28,6.97ZM108.68,160.01h3.85c1.54,0,2.43.74,2.43,2.02s-.89,2.04-2.43,2.04h-3.85v-4.06Z"/><polygon class="cls-1" points="134.18 170.99 126.13 170.99 126.13 166.9 133.48 166.9 133.48 163.99 126.13 163.99 126.13 160.08 134.18 160.08 134.18 157.12 122.96 157.12 122.96 173.94 134.18 173.94 134.18 170.99"/><path class="cls-1" d="M148.12,168.34h3.77c3.46,0,5.92-2.26,5.92-5.65s-2.48-5.58-5.92-5.58h-6.94v16.83h3.17v-5.6ZM148.12,160.01h3.2c2.09,0,3.25.98,3.25,2.72s-1.15,2.74-3.25,2.74h-3.2v-5.45Z"/><path class="cls-1" d="M178.29,165.53c.08-4.71-3.65-8.87-8.86-8.77-5.24-.1-8.94,4.06-8.87,8.77-.07,4.76,3.63,8.87,8.87,8.77,5.21.09,8.94-4.01,8.86-8.77ZM163.82,165.53c0-3.05,2.09-5.74,5.6-5.74s5.62,2.69,5.62,5.74-2.14,5.74-5.62,5.74-5.6-2.67-5.6-5.74Z"/><path class="cls-1" d="M196.35,167.45v-10.34h-3.18v10.12c0,2.43-1.48,4.04-3.91,4.04s-3.92-1.61-3.92-4.04v-10.12h-3.17v10.34c0,3.82,2.6,6.85,7.09,6.85s7.09-3.03,7.09-6.85Z"/><path class="cls-1" d="M211.01,173.94h3.66l-4.57-7.21c2.28-.6,3.75-2.28,3.75-4.71,0-3.15-2.5-4.91-5.77-4.91h-6.92v16.83h3.17v-6.99l2.4.02,4.28,6.97ZM204.33,160.01h3.85c1.54,0,2.43.74,2.43,2.02s-.89,2.04-2.43,2.04h-3.85v-4.06Z"/><polygon class="cls-1" points="236.05 170.99 228.3 170.99 228.3 157.12 225.1 157.12 225.1 173.94 236.05 173.94 236.05 170.99"/><polygon class="cls-1" points="240.44 157.12 236.74 157.12 236.74 164.5 238.38 164.5 240.44 157.12"/><path class="cls-1" d="M252.29,171.06l1.2,2.88h3.41l-7.23-16.97h-1.83l-7.23,16.97h3.41l1.2-2.88h7.06ZM248.75,162.5l2.35,5.67h-4.71l2.35-5.67Z"/><polygon class="cls-1" points="263.34 163.15 273 174.09 274.83 174.09 274.83 157.12 271.64 157.12 271.62 167.91 261.97 156.98 260.15 156.98 260.15 173.94 263.33 173.94 263.34 163.15"/><path class="cls-1" d="M290.97,173.94h3.41l-7.23-16.97h-1.83l-7.23,16.97h3.41l1.2-2.88h7.06l1.2,2.88ZM283.87,168.18l2.35-5.67,2.35,5.67h-4.71Z"/><polygon class="cls-1" points="308.59 170.99 300.83 170.99 300.83 157.12 297.63 157.12 297.63 173.94 308.59 173.94 308.59 170.99"/><polygon class="cls-1" points="316.18 165.08 311.9 157.12 308.19 157.12 314.56 168.65 314.56 173.94 317.73 173.94 317.73 168.65 324.1 157.12 320.41 157.12 316.18 165.08"/><path class="cls-1" d="M331.63,171.47c-1.61,0-2.94-.98-3.41-2.52l-2.72,1.37c.68,2.41,3.44,3.99,6.13,3.99,3.46,0,6.4-2.16,6.4-5.51,0-2.76-1.86-4.42-4.84-5.26l-1.82-.51c-1.13-.31-1.75-.84-1.75-1.8s.83-1.64,1.92-1.64,1.88.58,2.33,1.54l2.72-1.39c-.75-1.82-2.74-2.98-5.05-2.98-2.84,0-5.05,1.87-5.05,4.61,0,2.38,1.51,3.87,4,4.56l1.88.53c1.57.46,2.52,1.11,2.52,2.43,0,1.66-1.37,2.57-3.26,2.57Z"/><polygon class="cls-1" points="353.19 170.99 345.15 170.99 345.15 166.9 352.5 166.9 352.5 163.99 345.15 163.99 345.15 160.08 353.19 160.08 353.19 157.12 341.98 157.12 341.98 173.94 353.19 173.94 353.19 170.99"/><path class="cls-1" d="M368.82,171.47c-1.6,0-2.93-.98-3.4-2.52l-2.72,1.37c.68,2.41,3.43,3.99,6.12,3.99,3.46,0,6.4-2.16,6.4-5.51,0-2.76-1.85-4.42-4.83-5.26l-1.83-.51c-1.13-.31-1.75-.84-1.75-1.8s.84-1.64,1.92-1.64,1.88.58,2.34,1.54l2.71-1.39c-.74-1.82-2.74-2.98-5.05-2.98-2.83,0-5.05,1.87-5.05,4.61,0,2.38,1.51,3.87,4.01,4.56l1.88.53c1.56.46,2.52,1.11,2.52,2.43,0,1.66-1.37,2.57-3.27,2.57Z"/><path class="cls-1" d="M382.34,168.34h3.77c3.46,0,5.91-2.26,5.91-5.65s-2.48-5.58-5.91-5.58h-6.95v16.83h3.18v-5.6ZM382.34,160.01h3.19c2.09,0,3.25.98,3.25,2.72s-1.15,2.74-3.25,2.74h-3.19v-5.45Z"/><path class="cls-1" d="M397.29,171.06h7.07l1.2,2.88h3.41l-7.24-16.97h-1.83l-7.23,16.97h3.41l1.2-2.88ZM400.83,162.5l2.35,5.67h-4.71l2.35-5.67Z"/><polygon class="cls-1" points="408.84 160.01 413.96 160.01 413.96 173.94 417.13 173.94 417.13 160.01 422.23 160.01 422.23 157.12 408.84 157.12 408.84 160.01"/><rect class="cls-1" x="425.75" y="157.12" width="3.2" height="16.83"/><path class="cls-1" d="M439.43,156.98l-7.23,16.97h3.41l1.2-2.88h7.07l1.2,2.88h3.41l-7.24-16.97h-1.83ZM438,168.18l2.35-5.67,2.35,5.67h-4.71Z"/><polygon class="cls-1" points="454.95 157.12 451.75 157.12 451.75 173.94 462.7 173.94 462.7 170.99 454.95 170.99 454.95 157.12"/><polygon class="cls-1" points="466.23 173.94 477.45 173.94 477.45 170.99 469.4 170.99 469.4 166.9 476.75 166.9 476.75 163.99 469.4 163.99 469.4 160.08 477.45 160.08 477.45 157.12 466.23 157.12 466.23 173.94"/><polygon class="cls-1" points="95.53 202.76 106.74 202.76 106.74 199.8 98.7 199.8 98.7 195.71 106.05 195.71 106.05 192.8 98.7 192.8 98.7 188.89 106.74 188.89 106.74 185.93 95.53 185.93 95.53 202.76"/><polygon class="cls-1" points="109.52 188.82 114.64 188.82 114.64 202.76 117.81 202.76 117.81 188.82 122.9 188.82 122.9 185.93 109.52 185.93 109.52 188.82"/><polygon class="cls-1" points="135.39 185.93 132.19 185.93 132.19 202.76 143.14 202.76 143.14 199.8 135.39 199.8 135.39 185.93"/><path class="cls-1" d="M152.12,185.79l-7.23,16.97h3.41l1.2-2.88h7.06l1.2,2.88h3.41l-7.23-16.97h-1.83ZM150.68,196.99l2.35-5.67,2.35,5.67h-4.71Z"/><path class="cls-1" d="M180.73,193.4l2.59,3.15c-.77,2.11-2.64,3.53-5.17,3.53-3.51,0-5.6-2.69-5.6-5.74s2.09-5.74,5.6-5.74c1.74,0,3.18.65,4.14,1.71l2.38-2.09c-1.61-1.66-3.89-2.64-6.52-2.64-5.23-.1-8.94,4.06-8.86,8.77-.08,4.71,3.63,8.87,8.86,8.77,5.17.09,8.84-4.06,8.8-8.77,0-.26-.02-.58-.05-.94h-6.17Z"/><polygon class="cls-1" points="190.77 202.76 202 202.76 202 199.8 193.95 199.8 193.95 195.71 201.3 195.71 201.3 192.8 193.95 192.8 193.95 188.89 202 188.89 202 185.93 190.77 185.93 190.77 202.76"/><polygon class="cls-1" points="197.6 184.3 200.36 180.77 196.61 180.77 195.22 184.3 197.6 184.3"/><path class="cls-1" d="M213.9,185.57c-5.23-.1-8.94,4.06-8.86,8.77-.08,4.76,3.63,8.87,8.86,8.77,5.21.09,8.95-4.01,8.87-8.77.07-4.71-3.66-8.87-8.87-8.77ZM213.9,200.09c-3.51,0-5.6-2.67-5.6-5.74s2.09-5.74,5.6-5.74,5.63,2.69,5.63,5.74-2.14,5.74-5.63,5.74Z"/><polygon class="cls-1" points="232.94 197.23 227.86 185.93 224.29 185.93 232.03 202.9 233.85 202.9 241.59 185.93 238.01 185.93 232.94 197.23"/><rect class="cls-1" x="244.82" y="185.93" width="3.2" height="16.83"/><path class="cls-1" d="M259.47,192.35l-1.83-.51c-1.13-.31-1.75-.84-1.75-1.8s.84-1.64,1.92-1.64,1.88.58,2.34,1.54l2.71-1.39c-.74-1.82-2.74-2.98-5.05-2.98-2.83,0-5.05,1.87-5.05,4.61,0,2.38,1.51,3.87,4.01,4.56l1.88.53c1.56.46,2.52,1.11,2.52,2.43,0,1.66-1.37,2.57-3.27,2.57-1.6,0-2.93-.98-3.4-2.52l-2.72,1.37c.68,2.41,3.43,3.99,6.12,3.99,3.46,0,6.4-2.16,6.4-5.51,0-2.76-1.85-4.42-4.83-5.26Z"/><path class="cls-1" d="M279.06,196.05c0,2.43-1.48,4.04-3.91,4.04s-3.92-1.61-3.92-4.04v-10.12h-3.17v10.34c0,3.82,2.6,6.85,7.09,6.85s7.09-3.03,7.09-6.85v-10.34h-3.18v10.12Z"/><path class="cls-1" d="M291.83,185.79l-7.23,16.97h3.41l1.2-2.88h7.07l1.2,2.88h3.41l-7.24-16.97h-1.83ZM290.39,196.99l2.35-5.67,2.35,5.67h-4.71Z"/><polygon class="cls-1" points="307.34 185.93 304.14 185.93 304.14 202.76 315.11 202.76 315.11 199.8 307.34 199.8 307.34 185.93"/><rect class="cls-1" x="318.62" y="185.93" width="3.2" height="16.83"/><path class="cls-1" d="M333.27,192.35l-1.82-.51c-1.13-.31-1.75-.84-1.75-1.8s.83-1.64,1.92-1.64,1.88.58,2.33,1.54l2.72-1.39c-.75-1.82-2.74-2.98-5.05-2.98-2.84,0-5.05,1.87-5.05,4.61,0,2.38,1.51,3.87,4,4.56l1.88.53c1.57.46,2.52,1.11,2.52,2.43,0,1.66-1.37,2.57-3.26,2.57-1.61,0-2.94-.98-3.41-2.52l-2.72,1.37c.68,2.41,3.44,3.99,6.13,3.99,3.46,0,6.4-2.16,6.4-5.51,0-2.76-1.86-4.42-4.84-5.26Z"/><path class="cls-1" d="M347.11,185.79l-7.23,16.97h3.41l1.2-2.88h7.06l1.2,2.88h3.41l-7.23-16.97h-1.83ZM345.66,196.99l2.35-5.67,2.35,5.67h-4.71Z"/><polygon class="cls-1" points="356.03 188.82 361.15 188.82 361.15 202.76 364.32 202.76 364.32 188.82 369.42 188.82 369.42 185.93 356.03 185.93 356.03 188.82"/><rect class="cls-1" x="372.94" y="185.93" width="3.2" height="16.83"/><path class="cls-1" d="M389.08,185.57c-5.24-.1-8.94,4.06-8.87,8.77-.07,4.76,3.63,8.87,8.87,8.77,5.21.09,8.94-4.01,8.86-8.77.08-4.71-3.65-8.87-8.86-8.77ZM389.08,200.09c-3.51,0-5.6-2.67-5.6-5.74s2.09-5.74,5.6-5.74,5.62,2.69,5.62,5.74-2.14,5.74-5.62,5.74Z"/><polygon class="cls-1" points="413.47 196.72 403.84 185.79 402.01 185.79 402.01 202.76 405.18 202.76 405.21 191.96 414.87 202.9 416.69 202.9 416.69 185.93 413.5 185.93 413.47 196.72"/><path class="cls-1" d="M499.19-.02H12.81C5.74-.02,0,5.72,0,12.79v199.44c0,7.08,5.74,12.81,12.81,12.81h486.38c7.08,0,12.81-5.74,12.81-12.81V12.79c0-7.07-5.74-12.81-12.81-12.81ZM505.61,212.23c0,3.54-2.88,6.42-6.42,6.42H12.81c-3.54,0-6.42-2.88-6.42-6.42v-70.96h499.23v70.96ZM428.18,38.88c18.48,0,31.39,13.65,31.39,33.21,0,1.54-.14,3.17-.4,4.74l-.16.9h-48.27c1.86,9.34,8.3,14.88,17.44,14.88,7.62,0,13.69-3.45,17.13-9.7l.49-.88,12.33,5.55-.49.99c-5.24,10.89-15.98,17.12-29.46,17.12-18.64,0-32.16-14.07-32.16-33.47s13.23-33.34,32.16-33.34ZM352.88,40.56h7.43v-13.6h14.12v13.6h13.01v13.22h-13.01v50.21h-14.12v-50.21h-7.43v-13.22ZM299.87,38.88c8.67,0,16.16,3.11,21.43,8.85v-7.16h14.13v63.43h-14.13v-7.18c-5.37,5.82-12.71,8.87-21.43,8.87-17.89,0-30.87-14.12-30.87-33.6s13.27-33.21,30.87-33.21ZM238.13,40.56h14.12v63.43h-14.12v-63.43ZM188.71,73.7c0-11.57,0-33.11,31.51-33.11h1.08v14.14h-1.08c-17.38,0-17.38,6.34-17.38,18.98v30.3h-14.14v-30.3ZM67.22,38.65c7.88-6.7,17.53-9.97,27.12-9.97,11.88,0,23.68,5.02,31.98,14.79,14.99,17.65,12.83,44.11-4.82,59.1-7.88,6.7-17.53,9.97-27.12,9.97-11.88,0-23.68-5.02-31.98-14.79-14.99-17.65-12.83-44.11,4.82-59.1Z"/></svg>