<?xml version="1.0" encoding="UTF-8"?><svg id="Calque_1" xmlns="http://www.w3.org/2000/svg" viewBox="0 0 512 141.25"><defs><style>.cls-1{fill:#d3132a;stroke-width:0px;}</style></defs><path class="cls-1" d="M428.18,51.63c-8.65,0-15.12,5.32-17.14,13.98h33.67c-1.83-8.9-7.8-13.98-16.53-13.98Z"/><path class="cls-1" d="M499.19,0H12.81C5.74,0,0,5.74,0,12.81v115.63c0,7.08,5.74,12.81,12.81,12.81h486.38c7.08,0,12.81-5.74,12.81-12.81V12.81c0-7.07-5.74-12.81-12.81-12.81ZM121.5,102.58c-7.88,6.7-17.53,9.97-27.12,9.97-11.88,0-23.68-5.02-31.98-14.79-14.99-17.65-12.83-44.11,4.82-59.1,7.88-6.7,17.53-9.97,27.12-9.97,11.88,0,23.68,5.02,31.98,14.79,14.99,17.65,12.83,44.11-4.82,59.1ZM221.3,54.74h-1.08c-17.38,0-17.38,6.34-17.38,18.98v30.3h-14.14v-30.3c0-11.57,0-33.11,31.51-33.11h1.08v14.14ZM252.24,104.02h-14.12v-63.43h14.12v63.43ZM335.42,104.02h-14.13v-7.18c-5.37,5.82-12.71,8.87-21.43,8.87-17.89,0-30.87-14.12-30.87-33.6s13.27-33.21,30.87-33.21c8.67,0,16.16,3.11,21.43,8.85v-7.16h14.13v63.43ZM387.44,53.8h-13.01v50.21h-14.12v-50.21h-7.43v-13.22h7.43v-13.6h14.12v13.6h13.01v13.22ZM459.17,76.84l-.16.9h-48.27c1.86,9.34,8.3,14.88,17.44,14.88,7.62,0,13.69-3.45,17.13-9.7l.49-.88,12.33,5.55-.49.99c-5.24,10.89-15.98,17.12-29.46,17.12-18.64,0-32.16-14.07-32.16-33.47s13.23-33.34,32.16-33.34,31.39,13.65,31.39,33.21c0,1.54-.14,3.17-.4,4.74Z"/><path class="cls-1" d="M302.07,51.88c-5.72,0-10.3,1.94-13.62,5.76-3.28,3.76-4.95,8.59-4.95,14.37,0,12.05,7.47,20.14,18.57,20.14s18.58-7.91,18.58-20.14-7.47-20.13-18.58-20.13Z"/></svg>